<?xml version="1.0" encoding="UTF-8" standalone="no"?>
<!-- Created with Inkscape (http://www.inkscape.org/) -->

<svg
   xmlns:dc="http://purl.org/dc/elements/1.1/"
   xmlns:cc="http://creativecommons.org/ns#"
   xmlns:rdf="http://www.w3.org/1999/02/22-rdf-syntax-ns#"
   xmlns:svg="http://www.w3.org/2000/svg"
   xmlns="http://www.w3.org/2000/svg"
   version="1.1"
   width="125"
   height="185"
   id="svg2">
  <metadata
     id="metadata3350">
    <rdf:RDF>
      <cc:Work
         rdf:about="">
        <dc:format>image/svg+xml</dc:format>
        <dc:type
           rdf:resource="http://purl.org/dc/dcmitype/StillImage" />
        <dc:title></dc:title>
      </cc:Work>
    </rdf:RDF>
  </metadata>
  <defs
     id="defs3348" />
  <g
     id="layer1">
    <path
       d="m 58.374808,11.33852 c -27.980678,0 -51.27024,24.22609 -51.27024,50.51252 0,11.82569 6.65781,26.8526 11.46812,37.23095 L 58.1875,175.1615 97.615012,99.08199 c 4.810318,-10.37836 11.655418,-24.65178 11.655418,-37.23095 0,-26.28643 -22.914948,-50.51252 -50.895622,-50.51252 z m 0,30.45821 c 10.999853,0.0724 19.918083,9.03317 19.918083,20.05006 0,11.01688 -8.91823,19.84997 -19.918083,19.91808 -10.99986,-0.0724 -19.918086,-8.89695 -19.918086,-19.91808 0,-11.01689 8.918226,-19.97769 19.918086,-20.05006 z"
       id="well"
       style="fill:#ffffff;fill-opacity:0.2;stroke:none" />
    <path
       d="m 58.374808,11.33852 c -27.980678,0 -51.27024,24.22609 -51.27024,50.51252 0,11.82569 6.65781,26.8526 11.46812,37.23095 L 58.1875,175.1615 97.615012,99.08199 c 4.810318,-10.37836 11.655418,-24.65178 11.655418,-37.23095 0,-26.28643 -22.914948,-50.51252 -50.895622,-50.51252 z m 0,30.45821 c 10.999853,0.0724 19.918083,9.03317 19.918083,20.05006 0,11.01688 -8.91823,19.84997 -19.918083,19.91808 -10.99986,-0.0724 -19.918086,-8.89695 -19.918086,-19.91808 0,-11.01689 8.918226,-19.97769 19.918086,-20.05006 z"
       id="outline"
       style="fill:none;stroke:#ffffff;stroke-width:2" />
  </g>
</svg>
